name rise30.2954peak35.7071fall66.7804.mot
datacolumns 19
datarows 17
range 12.23496200000000 12.26163100000000
endheader
time	ground_force1_vx	ground_force1_vy	ground_force1_vz	ground_force1_px	ground_force1_py	ground_force1_pz	ground_force2_vx	ground_force2_vy	ground_force2_vz	ground_force2_px	ground_force2_py	ground_force2_pz	ground_torque1_x	ground_torque1_y	ground_torque1_z	ground_torque2_x	ground_torque2_y	ground_torque2_z	
12.23496200000000	-50.90282800000000	828.98370799999998	57.86990400000000	0.11282200000000	0.00000000000000	0.15893900000000	-4.76917300000000	40.06585400000000	6.57361400000000	0.33366000000000	0.00000000000000	-0.04044900000000	0.00000000000000	28.80333000000000	0.00000000000000	0.00000000000000	4.38079600000000	0.00000000000000	
12.23663100000000	-51.78006000000000	827.19833600000004	57.83107500000000	0.11174500000000	0.00000000000000	0.15887400000000	-5.34360100000000	46.61998400000000	7.47231900000000	0.33764800000000	0.00000000000000	-0.04052900000000	0.00000000000000	28.85977300000000	0.00000000000000	0.00000000000000	5.01454000000000	0.00000000000000	
12.23829300000000	-52.67034000000000	825.28022899999996	57.77383400000000	0.11067800000000	0.00000000000000	0.15880500000000	-5.85612400000000	53.16322300000000	8.31769000000000	0.34139000000000	0.00000000000000	-0.04059900000000	0.00000000000000	28.91836800000000	0.00000000000000	0.00000000000000	5.61924700000000	0.00000000000000	
12.23995600000000	-53.57321600000000	823.22739000000001	57.69746300000000	0.10962100000000	0.00000000000000	0.15873300000000	-6.29302700000000	59.60240500000000	9.09236300000000	0.34491600000000	0.00000000000000	-0.04066100000000	0.00000000000000	28.97908200000000	0.00000000000000	0.00000000000000	6.18237900000000	0.00000000000000	
12.24163600000000	-54.48817000000000	821.03783899999996	57.60126600000000	0.10857500000000	0.00000000000000	0.15865800000000	-6.64490700000000	65.86873500000000	9.78417800000000	0.34825100000000	0.00000000000000	-0.04071700000000	0.00000000000000	29.04186400000000	0.00000000000000	0.00000000000000	6.69479100000000	0.00000000000000	
12.24328700000000	-55.41461300000000	818.70960700000001	57.48457400000000	0.10754100000000	0.00000000000000	0.15857900000000	-6.90673600000000	71.91961100000000	10.38633400000000	0.35141300000000	0.00000000000000	-0.04076900000000	0.00000000000000	29.10664000000000	0.00000000000000	0.00000000000000	7.15092200000000	0.00000000000000	
12.24495800000000	-56.35188800000000	816.24074299999995	57.34674300000000	0.10651900000000	0.00000000000000	0.15849700000000	-7.07757300000000	77.73799600000000	10.89709300000000	0.35442000000000	0.00000000000000	-0.04081800000000	0.00000000000000	29.17331900000000	0.00000000000000	0.00000000000000	7.54867700000000	0.00000000000000	
12.24662800000000	-57.29926300000000	813.62931800000001	57.18716100000000	0.10551000000000	0.00000000000000	0.15841200000000	-7.15998200000000	83.32979800000000	11.31910500000000	0.35728400000000	0.00000000000000	-0.04086500000000	0.00000000000000	29.24178700000000	0.00000000000000	0.00000000000000	7.88902900000000	0.00000000000000	
12.24829200000000	-58.25593900000000	810.87341900000001	57.00524800000000	0.10451400000000	0.00000000000000	0.15832300000000	-7.15927600000000	88.71982000000000	11.65849700000000	0.36001700000000	0.00000000000000	-0.04091100000000	0.00000000000000	29.31190600000000	0.00000000000000	0.00000000000000	8.17544400000000	0.00000000000000	
12.24995300000000	-59.22104000000000	807.97116400000004	56.80045800000000	0.10353200000000	0.00000000000000	0.15823000000000	-7.08266600000000	93.94685699999999	11.92383700000000	0.36262800000000	0.00000000000000	-0.04095600000000	0.00000000000000	29.38352100000000	0.00000000000000	0.00000000000000	8.41319400000000	0.00000000000000	
12.25163000000000	-60.19362100000000	804.92069500000002	56.57228600000000	0.10256400000000	0.00000000000000	0.15813500000000	-6.93840600000000	99.05851000000000	12.12507000000000	0.36512400000000	0.00000000000000	-0.04100200000000	0.00000000000000	29.45645000000000	0.00000000000000	0.00000000000000	8.60864100000000	0.00000000000000	
12.25329000000000	-61.17266300000000	801.72018700000001	56.32026400000000	0.10161000000000	0.00000000000000	0.15803500000000	-6.73500500000000	104.10617600000000	12.27253200000000	0.36751200000000	0.00000000000000	-0.04104900000000	0.00000000000000	29.53049000000000	0.00000000000000	0.00000000000000	8.76854800000000	0.00000000000000	
12.25495600000000	-62.15707300000000	798.36785099999997	56.04397000000000	0.10067000000000	0.00000000000000	0.15793300000000	-6.48056400000000	109.14058400000000	12.37610100000000	0.36979700000000	0.00000000000000	-0.04109700000000	0.00000000000000	29.60541600000000	0.00000000000000	0.00000000000000	8.89948300000000	0.00000000000000	
12.25663300000000	-63.14568800000000	794.86193600000001	55.74302200000000	0.09974500000000	0.00000000000000	0.15782700000000	-6.18225000000000	114.20814900000001	12.44452800000000	0.37198400000000	0.00000000000000	-0.04114800000000	0.00000000000000	29.68097900000000	0.00000000000000	0.00000000000000	9.00732700000000	0.00000000000000	
12.25829000000000	-64.13727200000000	791.20073800000000	55.41708900000000	0.09883400000000	0.00000000000000	0.15771700000000	-5.84595000000000	119.34825800000000	12.48497100000000	0.37407600000000	0.00000000000000	-0.04120100000000	0.00000000000000	29.75690900000000	0.00000000000000	0.00000000000000	9.09692700000000	0.00000000000000	
12.25995300000000	-65.13051700000000	787.38260000000002	55.06588500000000	0.09793800000000	0.00000000000000	0.15760400000000	-5.47607500000000	124.59155500000000	12.50272500000000	0.37607700000000	0.00000000000000	-0.04125800000000	0.00000000000000	29.83291000000000	0.00000000000000	0.00000000000000	9.17188600000000	0.00000000000000	
12.26163100000000	-66.12404600000001	783.40591900000004	54.68917800000000	0.09705600000000	0.00000000000000	0.15748800000000	-5.07551800000000	129.95916199999999	12.50114900000000	0.37798800000000	0.00000000000000	-0.04131700000000	0.00000000000000	29.90866800000000	0.00000000000000	0.00000000000000	9.23447800000000	0.00000000000000	
